HIERARCHY
ROOT hips
{
  OFFSET 0 10.074487846421558 1.314567655973056
  CHANNELS 6 Xposition Yposition Zposition Yrotation Xrotation Zrotation
  JOINT spine
  {
    OFFSET -7.042773748992335e-31 0.5690686926897363 0
    CHANNELS 3 Yrotation Xrotation Zrotation
    JOINT chest
    {
      OFFSET 0 1.2435964857087873 0
      CHANNELS 3 Yrotation Xrotation Zrotation
      JOINT upperChest
      {
        OFFSET 0 1.194994586872362 0
        CHANNELS 3 Yrotation Xrotation Zrotation
        JOINT neck
        {
          OFFSET 0 1.515103653293861 0
          CHANNELS 3 Yrotation Xrotation Zrotation
          JOINT head
          {
            OFFSET 0 0.8111851616465653 0
            CHANNELS 3 Yrotation Xrotation Zrotation
            JOINT leftEye
            {
              OFFSET 0.27141371691966987 0.7490044407698551 0.18219031050045686
              CHANNELS 3 Yrotation Xrotation Zrotation
              End Site
              {
                OFFSET 0.27141371691966987 0.7490044407698551 0.18219031050045686
              }
            }
            JOINT rightEye
            {
              OFFSET -0.2714136877644943 0.7490044019380786 0.18219040411850668
              CHANNELS 3 Yrotation Xrotation Zrotation
              End Site
              {
                OFFSET -0.2714136877644943 0.7490044019380786 0.18219040411850668
              }
            }
          }
        }
        JOINT leftShoulder
        {
          OFFSET 0.4137993136083964 1.1593397335613034 0
          CHANNELS 3 Yrotation Xrotation Zrotation
          JOINT leftUpperArm
          {
            OFFSET 1.0096991868951026 0 0
            CHANNELS 3 Yrotation Xrotation Zrotation
            JOINT leftLowerArm
            {
              OFFSET 2.418380967671622 0 0
              CHANNELS 3 Yrotation Xrotation Zrotation
              JOINT leftHand
              {
                OFFSET 2.361538296260114 0 0
                CHANNELS 3 Yrotation Xrotation Zrotation
                JOINT leftIndexProximal
                {
                  OFFSET 0.7243699271447109 0.08118285989887508 0.2022042461579805
                  CHANNELS 3 Yrotation Xrotation Zrotation
                  JOINT leftIndexIntermediate
                  {
                    OFFSET 0.36553107045252053 -0.010567764853200323 -0.014102670024158437
                    CHANNELS 3 Yrotation Xrotation Zrotation
                    JOINT leftIndexDistal
                    {
                      OFFSET 0.22505120770060527 -0.007821041598631284 -0.007511611613336286
                      CHANNELS 3 Yrotation Xrotation Zrotation
                      End Site
                      {
                        OFFSET 0.22505120770060527 -0.007821041598631284 -0.007511611613336286
                      }
                    }
                  }
                }
                JOINT leftLittleProximal
                {
                  OFFSET 0.6721063881632002 0.08118279568569564 -0.3209324945517917
                  CHANNELS 3 Yrotation Xrotation Zrotation
                  JOINT leftLittleIntermediate
                  {
                    OFFSET 0.34587329423120616 5.3042709780015684e-8 -5.929537746918179e-8
                    CHANNELS 3 Yrotation Xrotation Zrotation
                    JOINT leftLittleDistal
                    {
                      OFFSET 0.1992782500022232 0.0030983716482184676 0.0038310952896712935
                      CHANNELS 3 Yrotation Xrotation Zrotation
                      End Site
                      {
                        OFFSET 0.1992782500022232 0.0030983716482184676 0.0038310952896712935
                      }
                    }
                  }
                }
                JOINT leftMiddleProximal
                {
                  OFFSET 0.7301229696860206 0.08118412848995638 0.022516891543707507
                  CHANNELS 3 Yrotation Xrotation Zrotation
                  JOINT leftMiddleIntermediate
                  {
                    OFFSET 0.4076277831942017 -0.000001240188283180288 -1.6203245635504349e-7
                    CHANNELS 3 Yrotation Xrotation Zrotation
                    JOINT leftMiddleDistal
                    {
                      OFFSET 0.2514739255593972 0.0000013850839168938478 -1.8644847207816007e-8
                      CHANNELS 3 Yrotation Xrotation Zrotation
                      End Site
                      {
                        OFFSET 0.2514739255593972 0.0000013850839168938478 -1.8644847207816007e-8
                      }
                    }
                  }
                }
                JOINT leftRingProximal
                {
                  OFFSET 0.7218060861525873 0.08118280646416753 -0.1494689818508163
                  CHANNELS 3 Yrotation Xrotation Zrotation
                  JOINT leftRingIntermediate
                  {
                    OFFSET 0.3781267508900358 0.000001373626195677602 -1.4143108284514483e-7
                    CHANNELS 3 Yrotation Xrotation Zrotation
                    JOINT leftRingDistal
                    {
                      OFFSET 0.21814333268795483 -0.0027137626495670197 -0.004991775417842292
                      CHANNELS 3 Yrotation Xrotation Zrotation
                      End Site
                      {
                        OFFSET 0.21814333268795483 -0.0027137626495670197 -0.004991775417842292
                      }
                    }
                  }
                }
                JOINT leftThumbProximal
                {
                  OFFSET 0.10743676110519984 -0.16423092885053192 -0.07708859146227388
                  CHANNELS 3 Yrotation Xrotation Zrotation
                  JOINT leftThumbIntermediate
                  {
                    OFFSET 0.40350402100066307 -0.01735099334274981 0.315629965828783
                    CHANNELS 3 Yrotation Xrotation Zrotation
                    JOINT leftThumbDistal
                    {
                      OFFSET 0.2320014489535681 -0.01842351809041043 0.21271298411519196
                      CHANNELS 3 Yrotation Xrotation Zrotation
                      End Site
                      {
                        OFFSET 0.2320014489535681 -0.01842351809041043 0.21271298411519196
                      }
                    }
                  }
                }
              }
            }
          }
        }
        JOINT rightShoulder
        {
          OFFSET -0.41379931360839656 1.1593397335613034 0
          CHANNELS 3 Yrotation Xrotation Zrotation
          JOINT rightUpperArm
          {
            OFFSET -1.0096991868951024 0 0
            CHANNELS 3 Yrotation Xrotation Zrotation
            JOINT rightLowerArm
            {
              OFFSET -2.4183809676716232 0 0
              CHANNELS 3 Yrotation Xrotation Zrotation
              JOINT rightHand
              {
                OFFSET -2.3615382962601132 0 0
                CHANNELS 3 Yrotation Xrotation Zrotation
                JOINT rightIndexProximal
                {
                  OFFSET -0.7243699271447109 0.08118285989887508 0.2022042461579805
                  CHANNELS 3 Yrotation Xrotation Zrotation
                  JOINT rightIndexIntermediate
                  {
                    OFFSET -0.36553107045252053 -0.010567764853200323 -0.014102670024158437
                    CHANNELS 3 Yrotation Xrotation Zrotation
                    JOINT rightIndexDistal
                    {
                      OFFSET -0.22505120770060527 -0.007821041598631284 -0.007511611613336286
                      CHANNELS 3 Yrotation Xrotation Zrotation
                      End Site
                      {
                        OFFSET -0.22505120770060527 -0.007821041598631284 -0.007511611613336286
                      }
                    }
                  }
                }
                JOINT rightLittleProximal
                {
                  OFFSET -0.6721063881632002 0.08118279568569564 -0.3209324945517917
                  CHANNELS 3 Yrotation Xrotation Zrotation
                  JOINT rightLittleIntermediate
                  {
                    OFFSET -0.34587329423120616 5.3042709780015684e-8 -5.929537746918179e-8
                    CHANNELS 3 Yrotation Xrotation Zrotation
                    JOINT rightLittleDistal
                    {
                      OFFSET -0.1992782500022232 0.0030983716482184676 0.0038310952896712935
                      CHANNELS 3 Yrotation Xrotation Zrotation
                      End Site
                      {
                        OFFSET -0.1992782500022232 0.0030983716482184676 0.0038310952896712935
                      }
                    }
                  }
                }
                JOINT rightMiddleProximal
                {
                  OFFSET -0.7301229696860206 0.08118412848995638 0.022516891543707507
                  CHANNELS 3 Yrotation Xrotation Zrotation
                  JOINT rightMiddleIntermediate
                  {
                    OFFSET -0.4076277831942017 -0.000001240188283180288 -1.6203245635504349e-7
                    CHANNELS 3 Yrotation Xrotation Zrotation
                    JOINT rightMiddleDistal
                    {
                      OFFSET -0.2514739255593972 0.0000013850839168938478 -1.8644847207816007e-8
                      CHANNELS 3 Yrotation Xrotation Zrotation
                      End Site
                      {
                        OFFSET -0.2514739255593972 0.0000013850839168938478 -1.8644847207816007e-8
                      }
                    }
                  }
                }
                JOINT rightRingProximal
                {
                  OFFSET -0.7218060861525873 0.08118280646416753 -0.1494689818508163
                  CHANNELS 3 Yrotation Xrotation Zrotation
                  JOINT rightRingIntermediate
                  {
                    OFFSET -0.3781267508900358 0.000001373626195677602 -1.4143108284514483e-7
                    CHANNELS 3 Yrotation Xrotation Zrotation
                    JOINT rightRingDistal
                    {
                      OFFSET -0.21814333268795483 -0.0027137626495670197 -0.004991775417842292
                      CHANNELS 3 Yrotation Xrotation Zrotation
                      End Site
                      {
                        OFFSET -0.21814333268795483 -0.0027137626495670197 -0.004991775417842292
                      }
                    }
                  }
                }
                JOINT rightThumbProximal
                {
                  OFFSET -0.10743676110519984 -0.16423092885053192 -0.07708859146227388
                  CHANNELS 3 Yrotation Xrotation Zrotation
                  JOINT rightThumbIntermediate
                  {
                    OFFSET -0.40350402100066307 -0.01735099334274981 0.315629965828783
                    CHANNELS 3 Yrotation Xrotation Zrotation
                    JOINT rightThumbDistal
                    {
                      OFFSET -0.2320014489535681 -0.01842351809041043 0.21271298411519196
                      CHANNELS 3 Yrotation Xrotation Zrotation
                      End Site
                      {
                        OFFSET -0.2320014489535681 -0.01842351809041043 0.21271298411519196
                      }
                    }
                  }
                }
              }
            }
          }
        }
      }
    }
  }
  JOINT leftUpperLeg
  {
    OFFSET 0.8487163290887698 -0.43932186100277326 0
    CHANNELS 3 Yrotation Xrotation Zrotation
    JOINT leftLowerLeg
    {
      OFFSET 0 -3.882816707004296 0
      CHANNELS 3 Yrotation Xrotation Zrotation
      JOINT leftFoot
      {
        OFFSET 0 -4.570431027442807 0.004629272230691511
        CHANNELS 3 Yrotation Xrotation Zrotation
        JOINT leftToes
        {
          OFFSET 0 -0.698875637876343 1.214565366696912
          CHANNELS 3 Yrotation Xrotation Zrotation
          End Site
          {
            OFFSET 0 -0.698875637876343 1.214565366696912
          }
        }
      }
    }
  }
  JOINT rightUpperLeg
  {
    OFFSET -0.8487163290887698 -0.43932186100277326 0
    CHANNELS 3 Yrotation Xrotation Zrotation
    JOINT rightLowerLeg
    {
      OFFSET 0 -3.882816707004296 0
      CHANNELS 3 Yrotation Xrotation Zrotation
      JOINT rightFoot
      {
        OFFSET 0 -4.570431027442807 0.004629272230691511
        CHANNELS 3 Yrotation Xrotation Zrotation
        JOINT rightToes
        {
          OFFSET 0 -0.698875637876343 1.214565366696912
          CHANNELS 3 Yrotation Xrotation Zrotation
          End Site
          {
            OFFSET 0 -0.698875637876343 1.214565366696912
          }
        }
      }
    }
  }
}
MOTION
Frames: 4
Frame Time: 0.03333333333333333
-0.008126887492835522 -0.16236321263249565 0.07239077240228653 -1.0263888319902679 -3.8892291975324933 0.3236498063927547 0.07341695565019839 0.6448510796392196 0.2064214711013207 0.32160385140941866 2.5704666396486893 0.9497811299170423 0 0 0 0.3310832678045 0.7339678161635516 -0.5724794978822946 1.747686376152549 -7.852881079435732 -2.640132633651624 0 0 0 0 0 0 -12.196391379790068 1.4539297825260862 -4.3320373137021075 4.226229979037771 -2.5476278297479085 -48.52170967581839 -10.388043355064932 -5.927879056533213 0.6734269119138818 -18.956350111604948 17.183236534858484 -10.519282418893164 -4.995396396993206 -14.695393072513538 -32.41960583630877 2.215122474237566 0.4116043200389195 -21.052670502703144 1.5902681281619158 0.20861168706104047 -14.947167920207475 8.425469873578702 9.56979257986774 -45.92116276090078 -0.9257301637503977 0.8691412871805704 -31.079498132428757 0.6216218312455858 0.03141494639834586 -5.78700133783456 -3.1157344355828287 -9.869662771858668 -30.205894310032757 2.122421925014328 0.37679461047344 -20.13292321951811 0.497587122560158 0.02011230784467302 -4.629698386850834 1.6545515068356524 -2.270339574954172 -32.844327401058635 2.412105113938572 0.4913708993480107 -23.026237795363073 0.467416980908403 0.017731284760190036 -4.348288753928639 -1.4677554002882345 -5.713638260226697 19.228021085937662 28.554388438400093 21.533534790674704 4.583064624637121 4.141934606895948 2.0238462310932555 2.218016786663578 15.235761892132663 1.0487238606464684 2.156390762720474 -11.430075594398906 2.7957646670475342 50.844021215887985 12.162088891246967 -6.913969844671397 -0.8944429370781415 19.57903331926079 15.516978316975258 -1.6869912846003674 -3.705563481295663 0.32719593412046255 41.40597435096411 -1.805100956239098 0.26710786805770925 16.83266708245652 -0.2867612178155429 0.0065907757128935325 2.6370514542285304 -1.320548315995236 -1.1829394012775034 24.411272495375965 -2.637514635634548 0.5854617205203632 25.02635241028044 -0.5166668705509402 0.021459014130838935 4.755209877386415 -3.532579293836908 0.4052144623736904 38.86836213529221 -1.4697706318357608 0.17576881736328315 13.638646425912087 -0.9983015879426863 -1.3968430035929138 1.3107033206809775 -1.2174940535880323 -2.0722991703726072 28.451913192480557 -2.5440327121586273 0.5427321196243555 24.08241318618882 -0.1703103420996716 -0.18344522732027282 0.5622617723985018 -22.19661692092135 -8.279874018060418 0.8167785190285076 -18.392114123300985 15.148124425131845 -3.8129621763993824 -6.939984037650485 5.614061011492319 -12.321163865155194 4.704418792591444 -4.094186082526903 -0.4401489198798145 1.7798809523895622 18.37383630519265 0.8230664039554305 -0.06414451580009704 -10.390291390087166 -0.184639150072707 -0.0000034015469524799103 -0.8872995038410402 4.393733907794398e-8 -3.4054614137036268 -4.720507121001094 0.6148843547391852 -4.446707794076783 18.95277511382888 -2.179128056040499 0.1988679180109066 -10.470555065331142 0.3902158540095064 -0.00000301583203460819 -0.652665957352215 0.0000015330606196846575
-0.008302327245473862 -0.1640664749615972 0.07155200093984604 -1.026343423501045 -3.889221495833061 0.340992793007215 0.07355776372970442 0.6448557223274646 0.20485548219226188 0.32134316556475373 2.5704888601214884 0.9389756035037217 0 0 0 0.3480075284821873 0.73935973567697 -0.5621400400196213 1.8329754266878568 -7.852224345687485 -2.609168196507163 0 0 0 0 0 0 -12.196393884106245 1.4539209217718048 -4.332054771679134 4.215340880073676 -2.5454145838129945 -48.52110558305805 -10.388038289299304 -5.927875193897076 0.6734467602010564 -18.956539757741126 17.180135552236603 -10.557675333656913 -5.040505362063001 -14.697783292712577 -32.310709866912056 2.236052040407617 0.41974102370336486 -21.26115996722805 1.5902648210413568 0.20862702840794092 -14.947162970862063 8.424955405805767 9.561099832245514 -45.90488896261791 -0.9257278159091669 0.8691364841512114 -31.079522736298784 0.6237472752889187 0.031640976335304695 -5.806819690911637 -3.1156478189394035 -9.860008999102117 -30.187992984541157 2.1224093402200754 0.376782870831956 -20.13295400117888 0.49759608684608103 0.020119398168437858 -4.629684771042948 1.654304584761337 -2.2704030174488508 -32.84272707906597 2.4121085261327817 0.49136108059001093 -23.026268519460093 0.4674181014490734 0.01773719280740404 -4.348259124590938 -1.4783550614112102 -5.7168001333006915 19.227423058147014 28.554375396810215 21.533540297690415 4.58303946485398 4.141941849535603 2.0238432410203346 2.21801529274721 15.250385140719935 1.0466444674718185 2.156435129662118 -11.469598357872492 2.7888663097177107 50.846137697629686 12.141180847160834 -6.9024159430439775 -0.8916492416429678 19.60853366774861 15.508582090240637 -1.584674029879874 -3.7052066511966646 0.3269640507558851 41.40251936904146 -1.8053723262859553 0.2671981289215423 16.8354069629776 -0.2863853753460917 0.006569782802840879 2.633624219587395 -1.309825945601144 -1.1901301441268446 24.36237102585007 -2.637413890723778 0.5854107582455625 25.025374536874917 -0.5166720463434924 0.021458627264628344 4.755193428414723 -3.5266640242461462 0.40162716343553057 38.810376848191694 -1.4691733862476217 0.17564360553320732 13.632863210969445 -0.9983136020303741 -1.396860190895081 1.310710578014791 -1.2197898364294688 -2.064560860092993 28.43278123612755 -2.5440177851762305 0.5427297182782432 24.08241318618882 -0.17134165818410665 -0.18343383471979138 0.5715044329545811 -22.198580885141663 -8.278644577359215 0.821355442610249 -18.37981007639735 15.140864514626285 -3.807278122705395 -6.942983889378582 5.615481676705038 -12.322106339142278 4.705571797636559 -4.148287033775593 -0.4631807260543199 1.7813921739084446 18.4735863702036 0.8369174590302979 -0.06426983292004995 -10.434727842119564 -0.19053891639910225 0.000003092832236520191 -0.9015593146191327 1.7349507564902477e-7 -3.340156496038268 -4.7916708718714816 0.5834513949697032 -4.514848900770186 19.0824425281777 -2.1728837013801208 0.20490849834950203 -10.530401941586687 0.38503510003966007 -0.00000470949634883961 -0.6526379410868672 -5.794983595785778e-7
-0.008505422621965408 -0.16672627263005424 0.0704178735613823 -1.026281068354786 -3.896431173069909 0.36452521959297046 0.07375454189585752 0.6448669288163494 0.20275895051319617 0.3208841085530281 2.5705134308370536 0.9199612557354852 0 0 0 0.36982672390494015 0.7488503902046746 -0.541767056800226 1.9509466350406233 -7.86158333058779 -2.5606667249717185 0 0 0 0 0 0 -12.195832603634202 1.4570705484652438 -4.317475126426018 4.20904890469213 -2.544131377224304 -48.52081131373904 -10.383518368164395 -5.925358906790053 0.6729279885354565 -19.008226861609216 17.192244870996962 -10.67153109038869 -5.083056490796026 -14.72492666160208 -32.24076342829084 2.1847956872665844 0.40003678433854545 -20.75126225721487 1.590290317873778 0.20861838389246823 -14.947175400189975 8.424175890695928 9.532111469745695 -45.839819844593165 -0.9255485777551101 0.869245299451189 -31.08166659831548 0.621033221489374 0.031351983917542965 -5.781464390508776 -3.0968905214204394 -9.86036082822436 -30.24952599600096 2.122431310284485 0.3767964781436775 -20.132935617731626 0.49843484047781655 0.0201720920139247 -4.637631209145248 1.6587953359055532 -2.2721533478451477 -32.88377441060868 2.413665585947057 0.4920246472297029 -23.042124525528585 0.46741986229869736 0.01774099643588145 -4.34825657064229 -1.4498455214944175 -5.708303443398464 19.229038358347914 28.581961920248123 21.554764052536527 4.591303304586945 4.143605625058034 2.0250266695977746 2.2184744663723746 15.286395619149923 1.0400418882499325 2.161965228911109 -11.521496276138258 2.785915805684641 50.84931193037906 12.114462264319144 -6.887648137561611 -0.8881111272580134 19.62988537016249 15.451178615833447 -1.4248589227516804 -3.69806875891798 0.322485695932424 41.333432665919865 -1.805000578951241 0.2670749440537448 16.831633735105495 -0.2839731865326567 0.006474767133546695 2.611378053923463 -1.294329040247902 -1.1935062686155866 24.246866118753292 -2.639418901760903 0.5863263182625233 25.04564651214362 -0.5166770620599782 0.021449996146068177 4.755187897987267 -3.5095204826084756 0.39129606821182944 38.6423545611321 -1.4667931140789312 0.1750351422187391 13.610373002731734 -0.9983095932343606 -1.396837772674888 1.3107073762498787 -1.2192284984382253 -2.049826970190755 28.358425316483416 -2.5449963454452074 0.5431626009528193 24.092117636706483 -0.166152058214261 -0.1750041927796679 0.56982255872801 -22.23918501355814 -8.245503751602842 0.8330567556935641 -18.370743744698014 15.130631364623206 -3.8008063479332925 -6.963288397191782 5.639878882950031 -12.334547977586876 4.707035569017953 -4.226023578981881 -0.4965581885023049 1.7943285272733418 18.632814001284316 0.862919178997786 -0.062400129325114746 -10.507560415771076 -0.2015119382070155 0.0000037115190854723475 -0.9334660456345133 -4.7483068544229463e-7 -3.2082775295360864 -4.892258608958726 0.5352920734194273 -4.643612904107869 19.281811588073218 -2.16425028319336 0.211584640064654 -10.623879354302442 0.37918521960809815 0.000008089796816069921 -0.6711446664635143 3.223930897209037e-7
-0.008610032498836517 -0.16830364994939018 0.06999199837446213 -1.0444415524473918 -3.9133110450477693 0.37662803920791615 0.07386457885565707 0.6448748267228164 0.20159187124967262 0.3206453300864375 2.591843341131574 0.9064939562807052 0 0 0 0.3798619497052411 0.7556468541164763 -0.5271735021610778 2.0109066351869713 -7.874952936487319 -2.530904568244714 0 0 0 0 0 0 -12.189432899786448 1.4620646101936636 -4.299083085406738 4.211263257225442 -2.5578661981721953 -48.5423186495465 -10.360701284006577 -5.912593100098555 0.670264694265258 -19.056267862833344 17.208775592903525 -10.75306597916443 -4.923126377976905 -14.720359277634827 -32.63169971057079 2.18860904812705 0.4014996278648277 -20.789061342748063 1.5902893577420245 0.2086109666847516 -14.947158790443583 8.427405613953612 9.554756171488265 -45.86258106984804 -0.9238260566587604 0.8702933206323511 -31.099985461689297 0.620763888031771 0.031320994597591814 -5.779158151738724 -3.0640865201985124 -9.86425523773247 -30.363292234180268 2.1224210718079446 0.37678465845918097 -20.132941602965545 0.5051300653771233 0.02070886053999914 -4.700106778785359 1.6498080262842774 -2.289905201818433 -32.88559037263235 2.414782890015681 0.49249669475637814 -23.053381974209525 0.466121178792853 0.01765437842729452 -4.336032159504774 -1.467595085876657 -5.726471197373119 19.228558267605038 28.616017152791514 21.580943254378816 4.601523176350804 4.144793291364346 2.025864104419179 2.218840061705603 15.327496209920465 1.0361207161019304 2.1734465882251794 -11.542188105419601 2.7897334904805673 50.84522579315154 12.109350042594837 -6.884801612520466 -0.8874553035344959 19.59337702193683 15.38296112150678 -1.3054065880899925 -3.6799381142472494 0.3055522286591154 41.1823510408306 -1.803755516974147 0.2666937299850878 16.819765163388563 -0.27959269293498984 0.006272236015146781 2.5712217357960507 -1.281443121847198 -1.1878723871993402 24.096767198211875 -2.64329768923423 0.5881678980240924 25.08505767302937 -0.5166659634532755 0.0214570130987152 4.755212429891396 -3.4860060596476607 0.3772546176650487 38.4125093824756 -1.4633397419894616 0.17422569434132068 13.577821241157636 -1.001148843687934 -1.4015356755257824 1.3104986665761194 -1.2145547604422031 -2.032168052576901 28.23842681762716 -2.5447960823109015 0.543105342185037 24.090217520632805 -0.15739917136448747 -0.16206718486672442 0.5604427772701283 -22.317514306407787 -8.170880185383204 0.8464015110210166 -18.364269884616593 15.123218167421708 -3.796171449045733 -7.004877144399579 5.685043191985607 -12.349462511553307 4.707596190273757 -4.255943613591403 -0.514317676735027 1.8252555277521265 18.727773434132708 0.8863747529935657 -0.05937323898097864 -10.55536248175491 -0.21227161316813375 -0.000001820313955815773 -0.966794801377172 8.772924375793491e-7 -3.079782793870474 -4.9376961809261575 0.5071073283609469 -4.754973335234049 19.398160507598842 -2.162776942652686 0.21330247272426292 -10.679100097653526 0.37850702036038214 0.000005917346494367039 -0.6869755955296085 1.3701038420517602e-7
